<svg width="235" height="66" viewBox="0 0 235 66" fill="none" xmlns="http://www.w3.org/2000/svg">
<rect x="181" y="23" width="21" height="29" rx="3" fill="#1561E5"/>
<path d="M3.38 52C3.38 46.176 3.38 40.2827 3.38 34.32C3.38 28.3573 3.38 22.464 3.38 16.64C4.90533 16.64 6.43067 16.64 7.956 16.64C9.48133 16.64 10.9893 16.64 12.48 16.64C12.48 18.8933 12.48 21.1813 12.48 23.504C12.48 25.792 12.48 28.0627 12.48 30.316C14.248 28.0627 16.016 25.792 17.784 23.504C19.5867 21.1813 21.372 18.8933 23.14 16.64C24.8387 16.64 26.5547 16.64 28.288 16.64C30.0213 16.64 31.7373 16.64 33.436 16.64C31.252 19.4133 29.0333 22.2213 26.78 25.064C24.5613 27.872 22.36 30.6627 20.176 33.436C22.464 36.4867 24.7693 39.572 27.092 42.692C29.4493 45.812 31.772 48.9147 34.06 52C32.2573 52 30.4373 52 28.6 52C26.7973 52 24.9947 52 23.192 52C21.424 49.5387 19.6387 47.0773 17.836 44.616C16.0333 42.12 14.248 39.6587 12.48 37.232C12.48 39.6587 12.48 42.12 12.48 44.616C12.48 47.0773 12.48 49.5387 12.48 52C10.9893 52 9.48133 52 7.956 52C6.43067 52 4.90533 52 3.38 52ZM37.1556 52C38.9583 46.176 40.761 40.2827 42.5636 34.32C44.401 28.3573 46.221 22.464 48.0236 16.64C50.069 16.64 52.1316 16.64 54.2116 16.64C56.3263 16.64 58.4063 16.64 60.4516 16.64C62.2543 22.464 64.057 28.3573 65.8596 34.32C67.697 40.2827 69.517 46.176 71.3196 52C69.829 52 68.3036 52 66.7436 52C65.2183 52 63.693 52 62.1676 52C61.821 50.8907 61.4916 49.7813 61.1796 48.672C60.8676 47.528 60.5383 46.4013 60.1916 45.292C58.2156 45.292 56.2223 45.292 54.2116 45.292C52.2356 45.292 50.2596 45.292 48.2836 45.292C47.937 46.4013 47.6076 47.528 47.2956 48.672C46.9836 49.7813 46.6543 50.8907 46.3076 52C44.817 52 43.2916 52 41.7316 52C40.2063 52 38.681 52 37.1556 52ZM50.5716 37.544C51.785 37.544 52.9983 37.544 54.2116 37.544C55.4596 37.544 56.6903 37.544 57.9036 37.544C57.3143 35.4987 56.7076 33.436 56.0836 31.356C55.4596 29.276 54.853 27.2133 54.2636 25.168C53.6743 27.2133 53.0503 29.276 52.3916 31.356C51.7676 33.436 51.161 35.4987 50.5716 37.544ZM78.3514 52C78.3514 46.176 78.3514 40.2827 78.3514 34.32C78.3514 28.3573 78.3514 22.464 78.3514 16.64C80.4314 16.64 82.5114 16.64 84.5914 16.64C86.7061 16.64 88.8034 16.64 90.8834 16.64C93.5181 16.64 95.8234 17.1427 97.7994 18.148C99.7754 19.1187 101.301 20.5053 102.375 22.308C103.485 24.076 104.039 26.156 104.039 28.548C104.039 30.5933 103.623 32.4133 102.791 34.008C101.959 35.6027 100.833 36.9027 99.4114 37.908C100.798 40.2307 102.185 42.588 103.571 44.98C104.993 47.3373 106.397 49.6773 107.783 52C106.085 52 104.386 52 102.687 52C100.989 52 99.2901 52 97.5914 52C96.5167 50.0587 95.4247 48.0827 94.3154 46.072C93.2407 44.0613 92.1487 42.0853 91.0394 40.144C90.4501 40.144 89.8434 40.144 89.2194 40.144C88.6301 40.144 88.0407 40.144 87.4514 40.144C87.4514 42.0853 87.4514 44.0613 87.4514 46.072C87.4514 48.0827 87.4514 50.0587 87.4514 52C85.9607 52 84.4527 52 82.9274 52C81.4021 52 79.8767 52 78.3514 52ZM90.8834 24.856C90.3287 24.856 89.7567 24.856 89.1674 24.856C88.6127 24.856 88.0407 24.856 87.4514 24.856C87.4514 26.1387 87.4514 27.4213 87.4514 28.704C87.4514 29.9867 87.4514 31.2693 87.4514 32.552C88.1101 32.552 88.7687 32.552 89.4274 32.552C90.0861 32.552 90.7447 32.552 91.4034 32.552C92.4434 32.552 93.2927 32.188 93.9514 31.46C94.6101 30.6973 94.9394 29.7787 94.9394 28.704C94.9394 27.5947 94.5754 26.676 93.8474 25.948C93.1541 25.22 92.1661 24.856 90.8834 24.856ZM114.542 52C114.542 46.176 114.542 40.2827 114.542 34.32C114.542 28.3573 114.542 22.464 114.542 16.64C116.622 16.64 118.72 16.64 120.834 16.64C122.949 16.64 125.046 16.64 127.126 16.64C129.692 16.64 132.049 17.0907 134.198 17.992C136.348 18.8587 138.22 20.0893 139.814 21.684C141.409 23.2787 142.64 25.1507 143.506 27.3C144.408 29.4147 144.858 31.7373 144.858 34.268C144.858 36.7987 144.408 39.1387 143.506 41.288C142.64 43.4373 141.409 45.3267 139.814 46.956C138.22 48.5507 136.348 49.7987 134.198 50.7C132.049 51.5667 129.692 52 127.126 52C125.046 52 122.949 52 120.834 52C118.72 52 116.622 52 114.542 52ZM127.126 24.856C126.572 24.856 126 24.856 125.41 24.856C124.821 24.856 124.232 24.856 123.642 24.856C123.642 27.976 123.642 31.1307 123.642 34.32C123.642 37.5093 123.642 40.664 123.642 43.784C124.232 43.784 124.821 43.784 125.41 43.784C126 43.784 126.572 43.784 127.126 43.784C128.86 43.784 130.368 43.368 131.65 42.536C132.933 41.704 133.921 40.5773 134.614 39.156C135.308 37.7 135.654 36.0707 135.654 34.268C135.654 32.4653 135.308 30.8533 134.614 29.432C133.921 28.0107 132.933 26.9013 131.65 26.104C130.368 25.272 128.86 24.856 127.126 24.856ZM152.83 24.2266H167.517C168.78 24.2266 169.926 24.5391 170.955 25.1641C171.996 25.776 172.823 26.5964 173.435 27.625C174.06 28.6536 174.372 29.7995 174.372 31.0625V33.8359C174.372 35.0729 174.06 36.2057 173.435 37.2344C172.823 38.25 171.996 39.0638 170.955 39.6758C169.926 40.2747 168.78 40.5742 167.517 40.5742H159.294V36.4727H167.517C168.285 36.4727 168.936 36.2122 169.47 35.6914C170.004 35.1706 170.271 34.5326 170.271 33.7773V31.0625C170.271 30.3073 170.004 29.6628 169.47 29.1289C168.936 28.5951 168.285 28.3281 167.517 28.3281H156.951V52H152.83V24.2266ZM210.995 24.2266H225.683C226.946 24.2266 228.092 24.5391 229.12 25.1641C230.162 25.776 230.989 26.5964 231.601 27.625C232.226 28.6536 232.538 29.7995 232.538 31.0625V33.8359C232.538 35.0729 232.226 36.2057 231.601 37.2344C230.989 38.25 230.162 39.0638 229.12 39.6758C228.092 40.2747 226.946 40.5742 225.683 40.5742H217.46V36.4727H225.683C226.451 36.4727 227.102 36.2122 227.636 35.6914C228.17 35.1706 228.437 34.5326 228.437 33.7773V31.0625C228.437 30.3073 228.17 29.6628 227.636 29.1289C227.102 28.5951 226.451 28.3281 225.683 28.3281H215.116V52H210.995V24.2266Z" fill="#1561E5"/>
</svg>
